<svg width="45" height="56" viewBox="0 0 45 56" fill="none" xmlns="http://www.w3.org/2000/svg">
<path fill-rule="evenodd" clip-rule="evenodd" d="M23.4244 0.127812L44.0934 7.17574C44.5983 7.35224 45.0119 7.93044 44.9997 8.46604V37.8263C44.9997 38.368 44.653 39.074 44.2333 39.4027L23.2663 55.7505C23.0595 55.9148 22.7797 56 22.4999 56C22.2201 56 21.9463 55.9148 21.7334 55.7505L0.766419 39.4027C0.346714 39.0679 0 38.3619 0 37.8263V8.46604C0 7.93044 0.413623 7.34616 0.918486 7.17574L21.5875 0.127812C21.8369 0.042604 22.1714 0 22.506 0C22.8405 0 23.175 0.042604 23.4244 0.127812ZM22.506 50.7901L40.6324 36.6578V10.6328L22.506 4.44908L4.37954 10.6328V36.6578L22.506 50.7901Z" fill="#ED4C5C"/>
<path fill-rule="evenodd" clip-rule="evenodd" d="M15.8697 29.0195L11.1557 33.7363C11.0651 33.8278 11.0143 33.9514 11.0143 34.0802C11.0143 34.209 11.0651 34.3326 11.1557 34.4241L13.2238 36.4934C13.4123 36.6821 13.7225 36.6821 13.9111 36.4934L18.6252 31.7765C22.0133 33.9128 26.5388 33.5051 29.4889 30.5532C32.9134 27.1266 32.9134 21.5759 29.4889 18.1493C26.0643 14.7227 20.5169 14.7227 17.0924 18.1493C14.1423 21.1012 13.7347 25.6355 15.8697 29.0195ZM26.7334 20.9064C24.8356 19.0014 21.7517 19.0014 19.8478 20.9064C17.9439 22.8114 17.95 25.8911 19.8478 27.7961C21.7456 29.7011 24.8295 29.7011 26.7334 27.7961C28.6373 25.8972 28.6373 22.8114 26.7334 20.9064Z" fill="#ED4C5C"/>
</svg>
