<svg width="0" height="0" class="hidden">
  <symbol fill="none" xmlns="http://www.w3.org/2000/svg" viewBox="0 0 45 56" id="icon-secure">
    <path fill-rule="evenodd" clip-rule="evenodd" d="M23.424.128l20.67 7.048c.504.176.918.754.906 1.29v29.36c0 .542-.347 1.248-.767 1.577L23.266 55.75c-.206.164-.486.249-.766.249s-.554-.085-.767-.25L.766 39.404C.346 39.068 0 38.362 0 37.826V8.466c0-.536.414-1.12.918-1.29L21.588.128A2.99 2.99 0 0122.505 0c.334 0 .669.043.918.128zm-.918 50.662l18.126-14.132V10.633L22.506 4.449 4.38 10.633v26.025L22.506 50.79z" fill="#ED4C5C"></path>
    <path fill-rule="evenodd" clip-rule="evenodd" d="M15.87 29.02l-4.714 4.716a.489.489 0 000 .688l2.068 2.07a.488.488 0 00.687 0l4.714-4.718a8.76 8.76 0 0010.864-1.223 8.772 8.772 0 000-12.404 8.76 8.76 0 00-12.397 0 8.774 8.774 0 00-1.222 10.87zm10.863-8.114a4.862 4.862 0 00-6.885 0 4.875 4.875 0 000 6.89 4.862 4.862 0 006.885 0 4.87 4.87 0 000-6.89z" fill="#ED4C5C"></path>
  </symbol>
  <symbol fill="none" xmlns="http://www.w3.org/2000/svg" viewBox="0 0 29 29" id="logo">
    <path d="M21.605 13.05c0-.435.145-.87.145-1.45 0-3.19-2.61-5.8-5.8-5.8-2.32 0-4.205 1.305-5.22 3.19-.29-.145-.87-.29-1.305-.29A3.59 3.59 0 005.8 12.325c0 .29 0 .58.145.725-2.61.435-4.495 2.465-4.495 5.075 0 2.755 2.32 5.075 5.075 5.075h14.5c2.755 0 5.075-2.32 5.075-5.075 0-2.61-1.885-4.785-4.495-5.075z" fill="#fff"></path>
  </symbol>
  <symbol fill="none" xmlns="http://www.w3.org/2000/svg" viewBox="0 0 32 32" id="logo-apple-store">
    <path d="M16 2C8.266 2 2 8.266 2 16s6.266 14 14 14 14-6.266 14-14S23.734 2 16 2zm-5.313 20.118a.967.967 0 01-.84.478.932.932 0 01-.492-.135.968.968 0 01-.35-1.325l.956-1.59a.545.545 0 01.47-.268h.142c.693 0 1.178.417 1.32.82l-1.206 2.02zm8.091-3.125L12.52 19H8.36a.966.966 0 01-.969-1.01c.02-.524.478-.922 1-.922h3.015l3.575-6.084-1.158-1.972c-.26-.45-.145-1.042.302-1.325a.973.973 0 011.367.324l.619 1.057h.006l.62-1.057a.974.974 0 011.363-.323c.444.282.559.875.296 1.326l-1.157 1.972-1.125 1.918-2.443 4.166v.007h3.6c.451 0 1.017.242 1.246.632l.02.041c.202.343.316.579.316.922a.864.864 0 01-.073.323l-.002-.002zm4.86.007h-1.695v.007l1.239 2.107a.988.988 0 01-.323 1.345.97.97 0 01-.989.015.98.98 0 01-.358-.349l-1.83-3.116-1.138-1.938-1.467-2.509a2.396 2.396 0 01-.04-2.374c.29-.512.511-.647.511-.647l3.265 5.521h2.806c.525 0 .976.404 1 .922A.98.98 0 0123.64 19h-.002z" fill="#fff"></path>
  </symbol>
  <symbol fill="none" xmlns="http://www.w3.org/2000/svg" viewBox="0 0 24 24" id="logo-windows">
    <path d="M0 3.449L9.75 2.1v9.451H0V3.449zm10.949-1.5L24 0v11.4H10.949V1.949zM0 12.6h9.75v9.451L0 20.699V12.6zm10.949 0H24V24l-12.9-1.801" fill="#fff"></path>
  </symbol>
  <symbol fill="none" xmlns="http://www.w3.org/2000/svg" viewBox="0 0 70 55" id="icon-cloud">
    <path d="M43.75 42.68h-5.789V23.75a.627.627 0 00-.625-.625h-4.688a.627.627 0 00-.625.625v18.93H26.25a.623.623 0 00-.492 1.008l8.75 11.07a.625.625 0 00.984 0l8.75-11.07a.623.623 0 00-.492-1.008z" fill="#ED4C5C"></path>
    <path d="M58.39 16.148C54.813 6.711 45.696 0 35.017 0 24.336 0 15.219 6.703 11.64 16.14 4.945 17.899 0 24 0 31.25c0 8.633 6.992 15.625 15.617 15.625h3.133a.627.627 0 00.625-.625v-4.688a.627.627 0 00-.625-.624h-3.133a9.631 9.631 0 01-6.953-2.946 9.683 9.683 0 01-2.726-7.078c.07-2.062.773-4 2.046-5.633a9.79 9.79 0 015.164-3.414l2.961-.773 1.086-2.86a18.788 18.788 0 012.79-4.953 19.189 19.189 0 014.093-3.898A18.915 18.915 0 0135.016 5.93c3.945 0 7.726 1.195 10.937 3.453a19.201 19.201 0 014.094 3.898 18.909 18.909 0 012.789 4.953l1.078 2.852 2.953.781a9.732 9.732 0 017.196 9.383 9.633 9.633 0 01-2.836 6.852 9.617 9.617 0 01-6.844 2.836H51.25a.627.627 0 00-.625.624v4.688c0 .344.281.625.625.625h3.133C63.008 46.875 70 39.883 70 31.25c0-7.242-4.93-13.336-11.61-15.102z" fill="#ED4C5C"></path>
  </symbol>
  <symbol fill="none" xmlns="http://www.w3.org/2000/svg" viewBox="0 0 47 54" id="icon-csv">
    <path d="M44.026 18.96H42.75v-6.142a.842.842 0 00-.011-.116 1.015 1.015 0 00-.248-.672L32.26.357l-.008-.008a1.063 1.063 0 00-.206-.173l-.068-.04a1.032 1.032 0 00-.205-.087L31.718.03a1.015 1.015 0 00-.24-.03H6.33a2.082 2.082 0 00-2.081 2.078v16.88H2.974A2.972 2.972 0 000 21.928v15.449a2.974 2.974 0 002.974 2.97H4.25v10.575A2.08 2.08 0 006.33 53h34.34a2.083 2.083 0 002.081-2.078V40.347h1.275A2.973 2.973 0 0047 37.377V21.928a2.971 2.971 0 00-2.974-2.968zM6.33 2.078h24.107v10.635a1.04 1.04 0 001.042 1.038h9.193v5.207H6.33V2.078zm15.57 28.48c-2.527-.902-4.194-2.299-4.194-4.505 0-2.589 2.188-4.547 5.75-4.547 1.738 0 2.977.338 3.88.764l-.768 2.747a7.14 7.14 0 00-3.156-.72c-1.49 0-2.211.697-2.211 1.463 0 .97.833 1.395 2.818 2.139 2.684.991 3.923 2.386 3.923 4.527 0 2.546-1.938 4.707-6.11 4.707-1.737 0-3.45-.474-4.307-.947l.7-2.814a8.682 8.682 0 003.809.946c1.579 0 2.414-.655 2.414-1.645 0-.946-.72-1.485-2.548-2.116zM3.991 29.52c0-5.158 3.698-8.017 8.297-8.017 1.782 0 3.134.358 3.743.653l-.722 2.724a7.248 7.248 0 00-2.886-.563c-2.705 0-4.824 1.643-4.824 5.02 0 3.018 1.803 4.933 4.847 4.933 1.06 0 2.188-.2 2.885-.495l.499 2.701c-.61.291-2.053.654-3.879.654-5.254.002-7.96-3.286-7.96-7.61zM40.67 50.362H6.33V40.349h34.34v10.013zm-2.779-13.455h-4.013l-4.87-15.178h3.766l1.848 6.42c.517 1.823.99 3.535 1.352 5.426h.068a67.248 67.248 0 011.374-5.359l1.94-6.485h3.65l-5.115 15.176z" fill="#ED4C5C"></path>
  </symbol>
  <symbol fill="none" xmlns="http://www.w3.org/2000/svg" viewBox="0 0 32 32" id="icon-google-play">
    <path d="M3 3.718v24.563a.27.27 0 00.46.192L16.25 16 3.46 3.526a.27.27 0 00-.46.192zm18.613 7.157L5.576 2.04l-.01-.006c-.276-.15-.538.224-.312.442l12.57 12.02 3.788-3.621zM5.255 29.524c-.228.218.035.592.312.442l.01-.006 16.035-8.835-3.788-3.622L5.255 29.524zm22.831-15.087l-4.478-2.466L19.398 16l4.21 4.027 4.478-2.465c1.218-.673 1.218-2.451 0-3.125z" fill="#fff"></path>
  </symbol>
  <symbol fill="none" xmlns="http://www.w3.org/2000/svg" viewBox="0 0 48 55" id="icon-pdf">
    <path d="M12.635 27.67c0-1.454-1.01-2.323-2.79-2.323-.728 0-1.22.07-1.478.14v4.67c.307.068.681.093 1.196.093 1.9 0 3.072-.962 3.072-2.58zm11.031-2.277c-.798 0-1.314.07-1.62.142V35.88c.306.07.797.07 1.243.07 3.237.024 5.349-1.76 5.349-5.535.024-3.285-1.9-5.022-4.972-5.022z" fill="#ED4C5C"></path>
    <path d="M44.798 19.316h-1.297v-6.258a.858.858 0 00-.011-.118 1.043 1.043 0 00-.25-.687L32.826.362l-.008-.008A1.082 1.082 0 0032.33.05l-.057-.02A1.03 1.03 0 0032.03 0H6.441a2.12 2.12 0 00-2.118 2.118v17.198H3.026A3.026 3.026 0 000 22.341v15.74a3.028 3.028 0 003.026 3.026h1.297v10.776a2.12 2.12 0 002.118 2.118h34.943a2.12 2.12 0 002.117-2.118V41.108h1.297a3.027 3.027 0 003.027-3.026v-15.74a3.027 3.027 0 00-3.027-3.026zM6.441 2.117h24.53v10.835c0 .585.475 1.058 1.06 1.058h9.355v5.305H6.44V2.117zm25.998 28.178c0 3.026-1.102 5.115-2.63 6.405-1.665 1.383-4.198 2.041-7.295 2.041-1.854 0-3.166-.119-4.06-.233V22.977c1.315-.21 3.027-.327 4.835-.327 3.001 0 4.949.54 6.473 1.689 1.644 1.219 2.677 3.166 2.677 5.957zM4.823 38.58V22.977c1.102-.188 2.651-.327 4.832-.327 2.206 0 3.778.423 4.832 1.266 1.008.798 1.687 2.112 1.687 3.66 0 1.55-.514 2.862-1.454 3.753-1.22 1.15-3.026 1.666-5.138 1.666-.468 0-.891-.023-1.218-.07v5.654H4.823zm36.56 12.731H6.442V41.108h34.943V51.31zm3.07-25.61h-6.078v3.613h5.678v2.91h-5.678v6.356h-3.587V22.767h9.664v2.932z" fill="#ED4C5C"></path>
  </symbol>
</svg>